<svg width="512" height="512" version="1.1" xmlns="http://www.w3.org/2000/svg"><path fill="rgb(249,213,181)" stroke="rgb(249,213,181)" stroke-width="1" opacity="0.9803921568627451" d="M 128 60 L 159.5 60 L 160 64 L 168 64 L 168 68 L 172 68 L 172 69.5 L 172 71.5 L 166 91.5 L 165 104.5 L 164 105.5 L 164 136.5 L 165 137.5 L 166 150.5 L 171 169.5 L 188 207 L 190 207.5 L 188 208 L 188 210 L 184 210 L 184 212 L 180 212 L 180 214 Q 174.7 212.8 175.5 216 L 172.5 216 L 168 217 Q 169.3 220 165.5 219 L 164.5 220 L 156 220 L 155.5 222 L 146 222 L 146 224 Q 140.7 222.8 141.5 226 L 128 226 L 128 220 L 116.5 220 L 113.5 219 L 112 219.5 L 112 218 L 104.5 218 L 104 216.5 L 102 213 Q 99.3 214.1 100 211.5 L 93 195.5 L 88 177.5 L 86 166.5 L 86 157.5 L 85 156.5 L 85 137.5 L 86 136.5 L 86 128.5 L 88 117.5 L 92 103.5 Q 99.1 83.6 110.5 68 L 116 68 L 116 64 Q 121.3 65.3 120.5 62 L 128 62 L 128 60 Z "></path><path fill="rgb(249,213,181)" stroke="rgb(249,213,181)" stroke-width="1" opacity="0.9803921568627451" d="M 266 76 L 273 76 L 273 92.5 Q 278.9 120.1 294 138.5 L 292.5 138 L 290 138 L 289.5 140 L 268.5 140 Q 265.6 135.8 260 135 Q 261.1 132.3 258.5 133 L 253 128.5 L 249 117 Q 246.3 118.1 247 115.5 L 246 114.5 L 246 104.5 L 249 99.5 L 249 93.5 Q 252.9 91.4 252 86 L 258 84 Q 256.5 80.2 259.5 81 L 266 79 L 266 76 Z "></path><path fill="rgb(249,213,181)" stroke="rgb(249,213,181)" stroke-width="1" opacity="0.9803921568627451" d="M 82 86 L 84 86.5 L 83.5 89 L 82 89.5 L 83 91.5 L 81 93.5 L 76 106.5 L 71 124.5 L 70 137.5 L 69 138.5 L 69 159.5 L 70 160.5 L 71 177.5 L 71 179.5 L 73 185.5 L 72 185.5 L 72 184 L 68 184 L 68 180 L 64 180 L 64 172 L 60 171.5 L 60 112 Q 63.7 113.2 62 108 L 64 108 L 64 106 L 68 104 L 68 100.5 Q 71.3 101.3 70 96 L 74 96 L 74 92.5 Q 77.3 93.3 76 88 L 82 88 L 82 86 Z "></path><path fill="rgb(249,213,181)" stroke="rgb(249,213,181)" stroke-width="1" opacity="0.9803921568627451" d="M 311.5 92 L 312 111.5 L 313 114.5 L 310 116 L 309 110.5 L 309 94 Q 311.8 95 311.5 92 Z "></path><path fill="rgb(147,181,217)" stroke="rgb(147,181,217)" stroke-width="1" opacity="0.9803921568627451" d="M 274.5 10 L 276.5 11 L 277.5 10 L 286 10 Q 285 13 288 12 Q 287 9 290 10 Q 291.1 12.7 288.5 12 L 288.5 13 L 307.5 14 L 311 15.5 Q 308.8 16.8 311.5 18 L 317.5 18 Q 316.9 20.8 320 20 Q 319 17 322 18 L 323 22 L 328 22 L 328 25.5 L 328.5 27 L 325.5 26 L 315.5 28 L 298.5 35 L 284 48.5 Q 274.9 59.2 273 76 L 266 76 Q 267.5 79.7 264.5 79 L 258 81 Q 259.5 84.8 256.5 84 L 252 86 Q 252.9 91.4 249 93.5 L 249 99.5 L 246 104.5 L 246 114.5 L 247 117 Q 250 115.8 249 119.5 L 255.5 131 L 260 133 Q 258.9 135.7 261.5 135 L 268.5 140 L 290 140 Q 288.8 137 292.5 138 L 295 139 Q 310.1 162 331.5 180 L 335 182.5 L 336 186 L 333 186 L 333 189 Q 330 188 331 191 L 325.5 191 L 324 194 L 318 195.5 L 320 196 L 319.5 198 L 304.5 198 L 300 199 Q 301.1 201.7 298.5 201 L 294.5 203 L 260.5 203 Q 259.3 200.8 254.5 202 L 252.5 200 L 248.5 200 L 242 197 L 241.5 195 L 240 195.5 L 241 194.5 L 238 191.5 Q 225.5 171 219 144.5 L 216 128.5 L 216 120.5 L 215 119.5 L 215 93.5 L 216 92.5 L 217 79.5 L 223 59.5 Q 231.8 37.8 248.5 24 L 268.5 12 L 270.5 13 L 274.5 10 Z "></path><path fill="rgb(147,181,217)" stroke="rgb(147,181,217)" stroke-width="1" opacity="0.9803921568627451" d="M 350.5 46 L 353.5 47 L 357 46 L 357 49.5 Q 360.3 48.7 359 54 L 363 54 L 363 55.5 L 362 57.5 L 363 60 Q 366 58.8 365 62.5 L 364.5 65 L 360 68.5 Q 354.5 75 355 87.5 L 357 96.5 L 362 107.5 L 376 127.5 L 375 130 Q 370.9 128.3 372 132.5 L 374 132.5 L 374 135 L 372 135.5 L 372 144 L 370.5 144 L 368 145 Q 369.3 149.1 366 148 L 366 151.5 L 363 153 L 359 165 Q 355.7 163.9 357 168 L 354.5 168 L 351.5 175 L 347.5 173 L 334 160.5 Q 317.3 143.2 310 116.5 L 313 114.5 L 312 111.5 L 311.5 92 L 311 94 Q 308 95.3 309 91.5 Q 313.9 67.9 330.5 56 L 350.5 46 Z "></path><path fill="rgb(0,0,0)" stroke="rgb(0,0,0)" stroke-width="1" opacity="0" d="M 0 0 L 512 0 L 512 512 L 0 512 L 0 0 Z M 205 3 Q 164 11 139 35 Q 118 53 104 78 L 91 107 L 87 123 L 86 137 L 85 138 L 85 157 L 86 158 L 87 173 Q 91 192 98 209 L 115 241 L 152 291 L 164 311 L 180 348 L 185 368 L 186 383 L 187 384 L 187 398 L 186 399 L 186 407 L 184 416 L 173 438 Q 163 451 143 455 L 129 455 L 119 452 Q 107 447 99 438 L 97 438 Q 99 451 106 459 Q 116 471 133 478 L 151 483 L 160 483 L 162 483 L 166 484 L 167 483 L 182 482 L 204 475 Q 221 468 235 456 Q 250 443 260 425 L 266 411 L 271 387 L 271 368 L 270 367 L 269 353 L 259 320 Q 249 297 237 278 L 195 217 L 183 197 L 171 170 L 166 151 L 165 138 L 164 137 L 164 106 Q 167 104 165 98 L 173 69 Q 189 30 216 4 L 205 3 Z M 300 5 L 299 6 L 291 6 L 281 8 L 269 12 L 249 24 Q 232 38 223 60 L 217 80 L 216 93 L 215 94 L 215 120 L 216 121 L 216 129 L 219 145 Q 225 169 236 189 Q 247 208 262 225 L 324 292 L 355 331 Q 370 351 380 376 L 387 396 L 391 415 L 391 437 Q 389 438 390 444 L 388 454 L 380 475 Q 396 467 409 455 Q 429 436 441 409 L 449 380 L 450 366 L 451 365 L 451 350 L 452 349 L 450 322 L 446 305 L 441 291 Q 428 261 407 241 L 388 223 Q 358 203 332 180 Q 311 162 295 141 Q 285 127 278 111 L 273 93 L 273 74 L 274 69 L 284 49 Q 296 32 321 27 L 345 27 L 360 30 L 368 33 L 364 27 Q 353 14 336 9 L 322 6 L 300 5 Z M 365 43 L 348 47 L 331 56 Q 314 68 309 92 L 309 112 L 314 130 Q 322 147 334 161 L 355 179 Q 385 200 412 225 Q 431 244 446 269 Q 455 283 460 301 L 465 327 L 465 366 L 464 367 L 464 375 L 461 388 L 461 393 L 457 405 L 458 407 L 472 387 L 490 352 L 499 327 L 504 301 L 503 274 L 496 248 Q 485 220 466 200 L 443 178 L 414 159 L 390 140 Q 376 128 365 113 L 357 97 L 355 88 Q 355 75 360 69 Q 367 61 380 58 L 394 58 L 409 62 Q 427 69 441 80 L 442 81 L 436 72 Q 424 55 404 47 L 389 43 L 365 43 Z M 109 47 L 89 64 Q 59 91 38 127 Q 30 140 25 157 L 20 186 L 21 210 L 28 238 Q 38 263 55 282 L 71 296 Q 91 313 105 337 Q 113 350 117 368 L 117 385 L 116 390 L 109 402 L 104 406 L 94 410 L 79 410 L 64 403 Q 53 395 47 382 Q 48 379 45 380 Q 44 387 47 392 L 57 407 Q 66 417 78 424 L 94 430 L 117 430 Q 118 428 123 429 Q 136 425 146 418 Q 154 411 159 402 L 165 382 L 165 363 Q 163 361 164 357 L 161 344 L 154 326 L 138 299 L 107 259 L 88 229 Q 80 214 75 196 L 71 178 L 70 160 L 69 159 L 69 139 L 70 138 L 71 125 L 75 110 Q 87 74 109 49 L 109 47 Z M 402 82 L 396 85 L 391 95 Q 390 105 393 111 L 405 129 L 422 143 Q 447 157 468 176 Q 483 191 495 211 L 505 234 L 506 234 L 504 210 L 498 183 L 493 167 Q 483 136 462 117 Q 448 100 429 88 L 413 82 L 402 82 Z M 8 216 L 6 229 L 6 283 L 10 306 Q 18 335 36 356 Q 50 374 73 384 Q 79 384 82 381 L 86 375 L 88 366 L 86 353 L 78 335 L 65 317 L 41 289 L 28 268 Q 16 247 10 222 Q 12 215 8 216 Z M 273 311 L 272 314 L 275 319 L 282 342 L 285 358 L 285 367 L 286 368 L 286 389 L 285 390 L 285 399 L 282 414 Q 275 439 260 456 Q 234 485 189 495 Q 183 493 184 497 L 205 503 L 237 509 L 282 509 L 293 507 L 319 498 L 334 488 L 345 474 L 350 462 L 352 452 L 352 432 L 351 431 L 350 420 L 339 389 Q 324 358 301 336 L 273 311 Z "></path><path fill="rgb(249,182,123)" stroke="rgb(249,182,123)" stroke-width="1" opacity="0.9725490196078431" d="M 204.5 3 L 216 3.5 L 209 7.5 L 211 8.5 Q 186.8 34.3 172.5 70 L 172 68 Q 166 70 168 64 L 160 64 L 159.5 60 L 128 60 L 128 62 L 120.5 62 Q 121.3 65.3 116 64 L 116 68 L 111 68 Q 121.7 49 138.5 35 Q 163.9 11.4 204.5 3 Z "></path><path fill="rgb(249,182,123)" stroke="rgb(249,182,123)" stroke-width="1" opacity="0.9725490196078431" d="M 108.5 47 L 109 48.5 Q 94.1 66.1 83.5 88 L 83.5 86 L 82 86 L 81.5 88 L 76 88 L 76 91.5 Q 72.8 90.7 74 96 L 70 96 L 70 99.5 Q 66.8 98.7 68 104 L 66 104 L 66 106 L 62 108 Q 63.3 113.3 60 112.5 L 60 172 L 64 172 L 64 180 L 68 180 L 68 184 L 72 184 L 72 185.5 L 74 188.5 L 75 195.5 L 81 213.5 L 92 235.5 L 107 258.5 L 136 296.5 L 134.5 296 L 112.5 296 L 111.5 294 L 100.5 294 Q 101.3 290.8 96 292 L 96 290 L 88 290 L 87.5 286 Q 78.7 287.4 79.5 284 L 68 284 L 68 280 Q 62 282 64 276 L 56.5 276 L 56 272 L 49.5 272 L 50.5 275 L 47 271.5 L 48 270.5 Q 49.1 267.2 46.5 268 L 46.5 270 Q 43.3 268.7 43.5 264 L 42 264.5 Q 30.2 247.3 24 224.5 L 21 209.5 L 20 185.5 L 25 156.5 Q 30 140 38 126.5 Q 59 91 88.5 64 L 108.5 47 Z "></path><path fill="rgb(249,182,123)" stroke="rgb(249,182,123)" stroke-width="1" opacity="0.9725490196078431" d="M 70.5 178 Q 73.5 177.1 72 181.5 L 71 181.5 L 70.5 178 Z "></path><path fill="rgb(249,182,123)" stroke="rgb(249,182,123)" stroke-width="1" opacity="0.9725490196078431" d="M 187.5 204 L 189 206.5 L 188 206.5 L 187.5 204 Z "></path><path fill="rgb(249,182,123)" stroke="rgb(249,182,123)" stroke-width="1" opacity="0.9725490196078431" d="M 188 208 L 192 210.5 L 232 269.5 L 230 270 L 230 268 L 224 268 L 224 276 Q 218.7 274.7 219.5 278 L 212 278 Q 213.2 281.7 208 280 L 208 284 L 192 284 L 192 288 L 184 288 L 184 292 Q 180.9 291.3 181.5 294 L 168.5 294 L 167.5 296 L 155.5 296 L 115 240.5 L 101 213.5 L 102 213.5 L 104 218 L 111.5 218 L 112 219.5 L 113.5 219 L 128 220 L 128 226 L 142 226 L 142 224 Q 147.3 225.3 146.5 222 L 155.5 222 L 156.5 220 L 164.5 220 L 168 219 Q 166.7 215.7 171.5 217 L 176 216 L 176 214 L 180 214 L 180 212 L 184 212 L 184 210 Q 189.2 211.7 188 208 Z "></path><path fill="rgb(249,182,123)" stroke="rgb(249,182,123)" stroke-width="1" opacity="0.9725490196078431" d="M 8 216 Q 12 214.6 10 221.5 L 14 234.5 L 12.5 234 Q 7.1 235.9 8 232.5 L 7 232.5 L 6.5 281 L 6 228.5 L 8 216 Z "></path><path fill="rgb(249,182,123)" stroke="rgb(249,182,123)" stroke-width="1" opacity="0.9725490196078431" d="M 15.5 239 L 18 246 Q 14.3 247.3 16 241.5 L 15.5 239 Z "></path><path fill="rgb(249,182,123)" stroke="rgb(249,182,123)" stroke-width="1" opacity="0.9725490196078431" d="M 156.5 297 L 157.5 299 L 156.5 297 Z "></path><path fill="rgb(59,125,185)" stroke="rgb(59,125,185)" stroke-width="1" opacity="0.9686274509803922" d="M 299.5 5 L 321.5 6 L 335.5 9 Q 353 14.5 364 26.5 L 368 33 L 355.5 29 L 344.5 27 L 333.5 27 L 332.5 26 L 329.5 27 Q 327 25.8 328 22 L 323 22 L 323 20.5 L 322 18 L 318 20 Q 319.1 16.5 311.5 18 L 310.5 15 L 288.5 13 L 286 12 L 285.5 10 L 277.5 10 L 275.5 11 L 275.5 10 L 280.5 8 L 290.5 6 L 298.5 6 L 299.5 5 Z M 288 10 Q 287 13 290 12 Q 291 9 288 10 Z "></path><path fill="rgb(59,125,185)" stroke="rgb(59,125,185)" stroke-width="1" opacity="0.9686274509803922" d="M 271.5 11 L 270.5 13 L 268.5 14 L 269.5 12 L 271.5 11 Z "></path><path fill="rgb(59,125,185)" stroke="rgb(59,125,185)" stroke-width="1" opacity="0.9686274509803922" d="M 364.5 43 L 388.5 43 L 403.5 47 Q 421.7 54.3 433 68.5 L 432 72 L 434 72 Q 432.9 74.7 435.5 74 L 435.5 77 Q 424.2 67.2 408.5 62 L 393.5 58 L 379.5 58 Q 370.5 59.5 364.5 64 L 365 62.5 L 365 60 Q 362.3 61.1 363 58.5 L 362 56.5 L 363 54 L 359 54 L 359 50.5 Q 355.7 51.3 357 46 L 354.5 46 L 352.5 47 L 352.5 46 L 364.5 43 Z "></path><path fill="rgb(59,125,185)" stroke="rgb(59,125,185)" stroke-width="1" opacity="0.9686274509803922" d="M 401.5 82 Q 425.8 81.8 437 94.5 L 435 94.5 L 436 96.5 L 436 125.5 L 435 130 L 433 130.5 L 433 143.5 L 432 149 Q 416.5 141.5 405 128.5 L 393 110.5 Q 389.8 104.8 391 94.5 L 396 85 L 401.5 82 Z "></path><path fill="rgb(59,125,185)" stroke="rgb(59,125,185)" stroke-width="1" opacity="0.9686274509803922" d="M 375.5 126 Q 397.1 149.4 425 166.5 L 424 172 L 417 172 L 417 183.5 L 413 184 L 413 185.5 L 412 188 L 409 188 L 409 194.5 L 408 197 Q 404.2 195.5 405 198.5 L 404 204 L 401 204 L 401 209 L 397.5 209 L 396.5 212 L 348 173.5 L 349.5 173 L 352 174.5 L 354.5 168 L 357 168 L 357 165 Q 359.7 166.1 359 163.5 L 363 153 L 366 151.5 L 366 148 L 368 148 Q 366.5 144.3 369.5 145 L 372 144 L 372 135.5 L 374 135 L 374 132.5 L 372 132.5 L 372 130 Q 375.8 131.5 375 128.5 L 375.5 126 Z "></path><path fill="rgb(59,125,185)" stroke="rgb(59,125,185)" stroke-width="1" opacity="0.9686274509803922" d="M 335.5 183 Q 358.6 203.9 385 221.5 L 384 224 Q 380.2 223.3 379 226.5 Q 379.7 229.1 377 228 L 377 231 L 373 231 Q 374.1 233.7 371.5 233 L 368.5 234 L 366 233 L 365 240 L 360 241 L 359.5 244 L 350.5 244 L 348 249 L 340.5 249 L 340 251 L 338.5 251 L 328 254 L 328 258 L 320.5 258 L 319.5 259 L 304.5 260 L 300.5 259 L 300.5 260 L 302 260.5 L 300 261 L 298.5 264 L 295 259 L 292 257.5 L 257 218.5 L 239 193.5 L 242 195.5 Q 241.3 197.8 243.5 197 L 248.5 200 L 252.5 200 L 254.5 202 Q 259.3 200.8 260.5 203 L 294.5 203 L 300 201 Q 298.7 197.7 303.5 199 L 304.5 198 L 320 198 Q 321.1 195.3 318.5 196 L 318.5 195 L 324 194 L 325.5 191 L 331 191 Q 330 188 333 189 L 333 186 Q 336.8 187.5 336 184.5 L 335.5 183 Z "></path><path fill="rgb(246,151,70)" stroke="rgb(246,151,70)" stroke-width="1" opacity="0.9764705882352941" d="M 210.5 6 L 213 6.5 L 209.5 8 L 210.5 6 Z "></path><path fill="rgb(246,151,70)" stroke="rgb(246,151,70)" stroke-width="1" opacity="0.9764705882352941" d="M 7.5 232 L 8 234 Q 13.5 232.8 15 236.5 L 16 246 Q 18.7 244.9 18 247.5 L 29 269.5 L 41 288.5 L 65 316.5 L 78 334.5 Q 84.1 343.9 87 356.5 L 87 371.5 L 86 375 L 84 375.5 L 84.5 377 L 82 378.5 L 82.5 380 L 81 379.5 L 79.5 382 L 78 381.5 Q 78.8 383.8 76.5 383 L 71.5 382 L 69.5 382 L 64 378.5 L 64 376 L 58.5 376 L 58 374.5 L 56 374.5 Q 57.1 371.2 54.5 372 L 52 371.5 L 52.5 370 L 48.5 368 L 36 355.5 Q 22.4 339.6 14 318.5 L 8 296.5 L 7 282.5 L 6 281.5 L 7 280.5 L 7.5 232 Z "></path><path fill="rgb(246,151,70)" stroke="rgb(246,151,70)" stroke-width="1" opacity="0.9764705882352941" d="M 45.5 267 L 48 268 L 47.5 271 L 45.5 267 Z "></path><path fill="rgb(246,151,70)" stroke="rgb(246,151,70)" stroke-width="1" opacity="0.9764705882352941" d="M 224 268 L 230 268 L 230 270 Q 232.7 268.9 232 271.5 Q 254.9 300.6 266 341.5 Q 263.5 343 267 344.5 L 266 346.5 L 266 348.5 Q 267.6 354.2 262 352 L 262 356 L 250 356 L 250 359.5 Q 246.8 358.7 248 364 L 240 364 L 240 362 L 234 362 L 234 368 L 240 368 L 240 372 L 224.5 372 L 223.5 376 L 208.5 376 L 207.5 377 L 192 377 Q 193.8 381.9 187.5 380 L 186 380.5 L 186 372.5 L 184 362.5 L 178 341.5 Q 169.6 318.4 157 299.5 Q 159.3 298.3 156.5 297 L 155 296.5 L 168 296 L 168.5 294 L 182 294 Q 181 291 184 292 L 184 288 L 192 288 L 192.5 284 L 208 284 L 208 280 Q 213.2 281.7 212 278 L 219.5 278 Q 218.7 274.7 224 276 L 224 268 Z "></path><path fill="rgb(246,151,70)" stroke="rgb(246,151,70)" stroke-width="1" opacity="0.9764705882352941" d="M 49.5 272 L 56 272 L 56.5 276 L 64 276 L 64 280 Q 70 278 68 284 L 79.5 284 Q 78.7 287.4 87.5 286 L 88 290 L 96 290 L 96 292 Q 101.3 290.8 100.5 294 L 111.5 294 L 112.5 296 L 134.5 296 L 138 298.5 Q 152.5 318 161 343.5 L 165 362.5 L 165 381.5 L 163 386.5 L 163.5 388 L 161.5 388 L 117.5 388 L 117 386.5 L 118 384.5 L 117 382.5 L 117 380.5 L 118 377.5 L 117 376.5 L 116 362.5 Q 112 348 105 336.5 Q 90.6 313.4 70.5 296 L 58 284.5 Q 58.8 282.3 56.5 283 L 50 275.5 L 51 274.5 L 49.5 272 Z "></path><path fill="rgb(246,151,70)" stroke="rgb(246,151,70)" stroke-width="1" opacity="0.9764705882352941" d="M 272.5 311 L 292 327.5 L 292 336 L 284 336 L 284 340 L 282.5 340 L 281 340.5 L 282 336.5 Q 278.9 334.8 280.5 333 Q 277.9 333.8 279 330.5 L 272 313.5 L 272.5 311 Z "></path><path fill="rgb(246,151,70)" stroke="rgb(246,151,70)" stroke-width="1" opacity="0.9764705882352941" d="M 237.5 508 L 281 508.5 L 237.5 509 L 237.5 508 Z "></path><path fill="rgb(244,131,37)" stroke="rgb(244,131,37)" stroke-width="1" opacity="0.9725490196078431" d="M 292.5 328 L 299 333.5 L 301 336.5 Q 324.3 358.2 339 388.5 L 349 415.5 L 352 431.5 L 352 450.5 L 350 461.5 L 347 469.5 Q 341.8 480.3 333.5 488 Q 315.3 502.8 287.5 508 L 229.5 508 L 204.5 503 L 185 497 Q 183.7 493.7 188.5 495 Q 234 485 260 455.5 Q 275.1 438.6 282 413.5 L 285 398.5 L 285 390.5 L 286 389.5 L 286 367.5 L 285 366.5 L 285 357.5 L 282 345.5 L 282 340.5 L 280 335.5 L 282 336.5 Q 280.7 341.3 284 340 L 284 336 L 292 336 L 292.5 328 Z "></path><path fill="rgb(244,131,37)" stroke="rgb(244,131,37)" stroke-width="1" opacity="0.9725490196078431" d="M 266 348 Q 269.3 346.7 268 351.5 L 271 367.5 L 271 386.5 L 268 403.5 L 261 422.5 Q 250.8 442.3 234.5 456 Q 221.1 467.6 203.5 475 L 181.5 482 L 166.5 483 L 165.5 484 L 161.5 483 L 159.5 483 L 150.5 483 L 132.5 478 Q 116.2 471.3 106 458.5 Q 98.7 450.8 97 437.5 L 98.5 438 Q 106.8 446.7 118.5 452 L 128.5 455 L 143.5 455 Q 162.9 450.9 173 437.5 L 182 421.5 L 187 399.5 L 187 397.5 L 187 383.5 L 186 381.5 Q 187.4 378.8 192 380 L 192.5 377 L 207.5 377 L 208.5 376 L 224 376 L 224 372 L 239.5 372 L 240 368 L 234 368 L 234 362 L 240 362 L 240.5 364 L 248 364 L 248 360.5 Q 251.3 361.3 250 356 L 262 356 L 262 352 Q 268 354 266 348 Z "></path><path fill="rgb(244,131,37)" stroke="rgb(244,131,37)" stroke-width="1" opacity="0.9725490196078431" d="M 87.5 362 L 88 365.5 L 87 365.5 L 87.5 362 Z "></path><path fill="rgb(244,131,37)" stroke="rgb(244,131,37)" stroke-width="1" opacity="0.9725490196078431" d="M 49.5 368 L 56 372 L 55.5 374 L 53 373 Q 54.1 370.3 51.5 371 L 49.5 368 Z "></path><path fill="rgb(244,131,37)" stroke="rgb(244,131,37)" stroke-width="1" opacity="0.9725490196078431" d="M 59.5 376 Q 65.3 373.9 64 378.5 L 68 381.5 L 66.5 381 Q 60.3 379.6 59.5 376 Z "></path><path fill="rgb(244,131,37)" stroke="rgb(244,131,37)" stroke-width="1" opacity="0.9725490196078431" d="M 83.5 377 L 84 379 Q 81.3 377.9 82 380.5 L 81 380.5 L 83.5 377 Z "></path><path fill="rgb(244,131,37)" stroke="rgb(244,131,37)" stroke-width="1" opacity="0.9725490196078431" d="M 45 380 Q 47.7 378.9 47 381.5 Q 53 394.5 63.5 403 L 78.5 410 L 93.5 410 L 103.5 406 L 109 402 L 114 394.5 L 116 389.5 L 116 385.5 L 117.5 384 L 118 385.5 L 117 388 L 161.5 388 L 163 386.5 L 163.5 385 L 164 386.5 Q 159.8 407.3 145.5 418 Q 135.9 425.4 122.5 429 Q 117.8 427.8 116.5 430 L 93.5 430 Q 70 423.5 57 406.5 L 47 391.5 Q 44.3 386.9 45 380 Z "></path><path fill="rgb(244,131,37)" stroke="rgb(244,131,37)" stroke-width="1" opacity="0.9725490196078431" d="M 71.5 382 Q 76.9 380.1 76 383.5 L 74.5 383 L 72.5 384 L 71.5 382 Z "></path><path fill="rgb(2,89,163)" stroke="rgb(2,89,163)" stroke-width="1" opacity="0.9764705882352941" d="M 432 69 L 434 69 L 434 71 Q 436.7 69.9 436 72.5 L 442 80.5 L 440.5 80 L 435 75.5 L 435.5 74 Q 432.9 74.7 434 72 L 432 72 L 432 69 Z "></path><path fill="rgb(2,89,163)" stroke="rgb(2,89,163)" stroke-width="1" opacity="0.9764705882352941" d="M 436.5 93 L 462 116.5 Q 482.6 136.4 493 166.5 L 498 182.5 L 504 209.5 L 506 233.5 L 505 233.5 L 495 210.5 Q 483.4 191.1 467.5 176 Q 451.7 160.8 432 149.5 L 433 130 Q 436.3 131.3 435 126.5 L 436 125.5 L 436 96.5 L 435 94.5 L 436.5 93 Z "></path><path fill="rgb(2,89,163)" stroke="rgb(2,89,163)" stroke-width="1" opacity="0.9764705882352941" d="M 424 167 L 426.5 167 L 442.5 178 L 466 199.5 Q 484.9 219.6 496 247.5 L 503 273.5 L 504 300.5 L 499 326.5 L 490 351.5 L 472 386.5 L 457.5 407 L 457 404.5 L 461 392.5 L 461 387.5 L 464 374.5 L 464 366.5 L 465 365.5 L 465 326.5 L 460 300.5 Q 454.6 282.9 446 268.5 Q 431.5 244 411.5 225 L 397 212.5 L 396 210.5 Q 397.2 208 401 209 L 401 204 Q 405.9 205.8 404 199.5 L 405 197 Q 408.8 198.5 408 195.5 L 409 194.5 L 409 188 Q 412.7 189.5 412 186.5 L 413 184 L 417 184 L 417 172 L 424 172 L 424 167 Z "></path><path fill="rgb(2,89,163)" stroke="rgb(2,89,163)" stroke-width="1" opacity="0.9764705882352941" d="M 383.5 221 L 387.5 223 L 407 240.5 Q 428.1 261.4 441 290.5 L 446 304.5 L 450 321.5 L 452 348.5 L 451 349.5 L 451 364.5 L 450 365.5 L 449 379.5 L 441 408.5 Q 429 436 408.5 455 Q 396.2 467.4 380 475 L 388 453.5 L 390 443.5 Q 388.5 438 391 436.5 L 391 414.5 L 387 395.5 L 382 380.5 L 363 342.5 L 336 305.5 L 299 263.5 L 300 261 L 302 260.5 L 300 259.5 L 303.5 259 Q 305.3 261.8 311.5 260 L 312.5 259 L 328 258 Q 325.8 252.4 331.5 254 L 340 251 L 340 249 L 347.5 249 L 348 247.5 L 350.5 244 L 359.5 244 L 360 241 L 362.5 241 L 365 240 L 366 233 L 370.5 234 L 373 233 Q 371.8 229.3 377 231 L 377 228 Q 379.7 229.1 379 226.5 Q 380.2 223.3 384 224 L 383.5 221 Z "></path></svg>